<?xml version="1.0" encoding="UTF-8" standalone="no"?>
<!DOCTYPE svg PUBLIC "-//W3C//DTD SVG 1.1//EN"
 "http://www.w3.org/Graphics/SVG/1.1/DTD/svg11.dtd">
<!-- Generated by graphviz version 2.40.1 (20161225.0304)
 -->
<!-- Title: dependencies Pages: 1 -->
<svg width="2464pt" height="284pt"
 viewBox="0.00 0.00 2464.00 284.00" xmlns="http://www.w3.org/2000/svg" xmlns:xlink="http://www.w3.org/1999/xlink">
<g id="graph0" class="graph" transform="scale(1 1) rotate(0) translate(4 280)">
<title>dependencies</title>
<polygon fill="#ffffff" stroke="transparent" points="-4,4 -4,-280 2460,-280 2460,4 -4,4"/>
<text text-anchor="start" x="1207.0091" y="-42.4" font-family="sans-serif" font-weight="bold" font-size="14.00" fill="#000000">Legend</text>
<polygon fill="#ffffb3" stroke="transparent" points="994,-10 994,-30 1014,-30 1014,-10 994,-10"/>
<text text-anchor="start" x="1017.629" y="-15.4" font-family="sans-serif" font-size="14.00" fill="#000000"> &#160;Declarations</text>
<polygon fill="#8dd3c7" stroke="transparent" points="1107,-10 1107,-30 1127,-30 1127,-10 1107,-10"/>
<text text-anchor="start" x="1130.7251" y="-15.4" font-family="sans-serif" font-size="14.00" fill="#000000"> &#160;Module</text>
<polygon fill="#80b1d3" stroke="transparent" points="1193,-10 1193,-30 1213,-30 1213,-10 1193,-10"/>
<text text-anchor="start" x="1216.7812" y="-15.4" font-family="sans-serif" font-size="14.00" fill="#000000"> &#160;Bootstrap</text>
<polygon fill="#fdb462" stroke="transparent" points="1290,-10 1290,-30 1310,-30 1310,-10 1290,-10"/>
<text text-anchor="start" x="1313.6732" y="-15.4" font-family="sans-serif" font-size="14.00" fill="#000000"> &#160;Providers</text>
<polygon fill="#fb8072" stroke="transparent" points="1386,-10 1386,-30 1406,-30 1406,-10 1386,-10"/>
<text text-anchor="start" x="1409.7258" y="-15.4" font-family="sans-serif" font-size="14.00" fill="#000000"> &#160;Exports</text>
<g id="clust1" class="cluster">
<title>cluster_AppModule</title>
<polygon fill="none" stroke="#000000" stroke-dasharray="1,5" points="8,-70 8,-268 2448,-268 2448,-70 8,-70"/>
</g>
<g id="clust2" class="cluster">
<title>cluster_AppModule_declarations</title>
<polygon fill="none" stroke="#000000" points="1468,-78 1468,-130 2440,-130 2440,-78 1468,-78"/>
</g>
<g id="clust10" class="cluster">
<title>cluster_AppModule_imports</title>
<polygon fill="none" stroke="#000000" points="449,-78 449,-130 1460,-130 1460,-78 449,-78"/>
</g>
<g id="clust12" class="cluster">
<title>cluster_AppModule_bootstrap</title>
<polygon fill="none" stroke="#000000" points="1218,-208 1218,-260 1342,-260 1342,-208 1218,-208"/>
</g>
<g id="clust13" class="cluster">
<title>cluster_AppModule_providers</title>
<polygon fill="none" stroke="#000000" points="16,-78 16,-130 441,-130 441,-78 16,-78"/>
</g>
<!-- AppComponent -->
<g id="node1" class="node">
<title>AppComponent</title>
<polygon fill="#ffffb3" stroke="#000000" points="2431.9399,-122 2326.0601,-122 2326.0601,-86 2431.9399,-86 2431.9399,-122"/>
<text text-anchor="middle" x="2379" y="-99.8" font-family="Times,serif" font-size="14.00" fill="#000000">AppComponent</text>
</g>
<!-- AppModule -->
<g id="node8" class="node">
<title>AppModule</title>
<polygon fill="#8dd3c7" stroke="#000000" points="1321.6571,-187 1318.6571,-191 1297.6571,-191 1294.6571,-187 1238.3429,-187 1238.3429,-151 1321.6571,-151 1321.6571,-187"/>
<text text-anchor="middle" x="1280" y="-164.8" font-family="Times,serif" font-size="14.00" fill="#000000">AppModule</text>
</g>
<!-- AppComponent&#45;&gt;AppModule -->
<g id="edge1" class="edge">
<title>AppComponent&#45;&gt;AppModule</title>
<path fill="none" stroke="#000000" d="M2379,-122.3228C2379,-145.6602 2379,-183 2379,-183 2379,-183 1331.7401,-183 1331.7401,-183"/>
<polygon fill="#000000" stroke="#000000" points="1331.7401,-179.5001 1321.7401,-183 1331.7401,-186.5001 1331.7401,-179.5001"/>
</g>
<!-- NavbarComponent -->
<g id="node2" class="node">
<title>NavbarComponent</title>
<polygon fill="#ffffb3" stroke="#000000" points="2308.0297,-122 2185.9703,-122 2185.9703,-86 2308.0297,-86 2308.0297,-122"/>
<text text-anchor="middle" x="2247" y="-99.8" font-family="Times,serif" font-size="14.00" fill="#000000">NavbarComponent</text>
</g>
<!-- NavbarComponent&#45;&gt;AppModule -->
<g id="edge2" class="edge">
<title>NavbarComponent&#45;&gt;AppModule</title>
<path fill="none" stroke="#000000" d="M2247,-122.1554C2247,-144.3519 2247,-179 2247,-179 2247,-179 1331.8612,-179 1331.8612,-179"/>
<polygon fill="#000000" stroke="#000000" points="1331.8612,-175.5001 1321.8612,-179 1331.8611,-182.5001 1331.8612,-175.5001"/>
</g>
<!-- DashboardComponent -->
<g id="node3" class="node">
<title>DashboardComponent</title>
<polygon fill="#ffffb3" stroke="#000000" points="2167.9734,-122 2026.0266,-122 2026.0266,-86 2167.9734,-86 2167.9734,-122"/>
<text text-anchor="middle" x="2097" y="-99.8" font-family="Times,serif" font-size="14.00" fill="#000000">DashboardComponent</text>
</g>
<!-- DashboardComponent&#45;&gt;AppModule -->
<g id="edge3" class="edge">
<title>DashboardComponent&#45;&gt;AppModule</title>
<path fill="none" stroke="#000000" d="M2097,-122.2843C2097,-143.3211 2097,-175 2097,-175 2097,-175 1331.9213,-175 1331.9213,-175"/>
<polygon fill="#000000" stroke="#000000" points="1331.9213,-171.5001 1321.9213,-175 1331.9213,-178.5001 1331.9213,-171.5001"/>
</g>
<!-- LoginComponent -->
<g id="node4" class="node">
<title>LoginComponent</title>
<polygon fill="#ffffb3" stroke="#000000" points="2008.2758,-122 1893.7242,-122 1893.7242,-86 2008.2758,-86 2008.2758,-122"/>
<text text-anchor="middle" x="1951" y="-99.8" font-family="Times,serif" font-size="14.00" fill="#000000">LoginComponent</text>
</g>
<!-- LoginComponent&#45;&gt;AppModule -->
<g id="edge4" class="edge">
<title>LoginComponent&#45;&gt;AppModule</title>
<path fill="none" stroke="#000000" d="M1951,-122.308C1951,-142.1455 1951,-171 1951,-171 1951,-171 1331.7205,-171 1331.7205,-171"/>
<polygon fill="#000000" stroke="#000000" points="1331.7206,-167.5001 1321.7205,-171 1331.7205,-174.5001 1331.7206,-167.5001"/>
</g>
<!-- HomeComponent -->
<g id="node5" class="node">
<title>HomeComponent</title>
<polygon fill="#ffffb3" stroke="#000000" points="1875.5451,-122 1760.4549,-122 1760.4549,-86 1875.5451,-86 1875.5451,-122"/>
<text text-anchor="middle" x="1818" y="-99.8" font-family="Times,serif" font-size="14.00" fill="#000000">HomeComponent</text>
</g>
<!-- HomeComponent&#45;&gt;AppModule -->
<g id="edge5" class="edge">
<title>HomeComponent&#45;&gt;AppModule</title>
<path fill="none" stroke="#000000" d="M1818,-122.2222C1818,-140.8285 1818,-167 1818,-167 1818,-167 1331.7683,-167 1331.7683,-167"/>
<polygon fill="#000000" stroke="#000000" points="1331.7683,-163.5001 1321.7683,-167 1331.7682,-170.5001 1331.7683,-163.5001"/>
</g>
<!-- RegisterComponent -->
<g id="node6" class="node">
<title>RegisterComponent</title>
<polygon fill="#ffffb3" stroke="#000000" points="1741.9846,-122 1614.0154,-122 1614.0154,-86 1741.9846,-86 1741.9846,-122"/>
<text text-anchor="middle" x="1678" y="-99.8" font-family="Times,serif" font-size="14.00" fill="#000000">RegisterComponent</text>
</g>
<!-- RegisterComponent&#45;&gt;AppModule -->
<g id="edge6" class="edge">
<title>RegisterComponent&#45;&gt;AppModule</title>
<path fill="none" stroke="#000000" d="M1678,-122.0225C1678,-139.3734 1678,-163 1678,-163 1678,-163 1331.8407,-163 1331.8407,-163"/>
<polygon fill="#000000" stroke="#000000" points="1331.8408,-159.5001 1321.8407,-163 1331.8407,-166.5001 1331.8408,-159.5001"/>
</g>
<!-- ProfileComponent -->
<g id="node7" class="node">
<title>ProfileComponent</title>
<polygon fill="#ffffb3" stroke="#000000" points="1595.9328,-122 1476.0672,-122 1476.0672,-86 1595.9328,-86 1595.9328,-122"/>
<text text-anchor="middle" x="1536" y="-99.8" font-family="Times,serif" font-size="14.00" fill="#000000">ProfileComponent</text>
</g>
<!-- ProfileComponent&#45;&gt;AppModule -->
<g id="edge7" class="edge">
<title>ProfileComponent&#45;&gt;AppModule</title>
<path fill="none" stroke="#000000" d="M1536,-122.0091C1536,-138.0494 1536,-159 1536,-159 1536,-159 1331.7006,-159 1331.7006,-159"/>
<polygon fill="#000000" stroke="#000000" points="1331.7006,-155.5001 1321.7006,-159 1331.7005,-162.5001 1331.7006,-155.5001"/>
</g>
<!-- AppComponent  -->
<g id="node16" class="node">
<title>AppComponent </title>
<polygon fill="#80b1d3" stroke="#000000" points="1334.439,-252 1225.561,-252 1225.561,-216 1334.439,-216 1334.439,-252"/>
<text text-anchor="middle" x="1280" y="-229.8" font-family="Times,serif" font-size="14.00" fill="#000000">AppComponent </text>
</g>
<!-- AppModule&#45;&gt;AppComponent  -->
<g id="edge15" class="edge">
<title>AppModule&#45;&gt;AppComponent </title>
<path fill="none" stroke="#000000" stroke-dasharray="1,5" d="M1280,-187.1061C1280,-187.1061 1280,-205.991 1280,-205.991"/>
<polygon fill="#000000" stroke="#000000" points="1276.5001,-205.9909 1280,-215.991 1283.5001,-205.991 1276.5001,-205.9909"/>
</g>
<!-- BrowserModule -->
<g id="node9" class="node">
<title>BrowserModule</title>
<polygon fill="#8dd3c7" stroke="#000000" points="1452.4734,-122 1449.4734,-126 1428.4734,-126 1425.4734,-122 1345.5266,-122 1345.5266,-86 1452.4734,-86 1452.4734,-122"/>
<text text-anchor="middle" x="1399" y="-99.8" font-family="Times,serif" font-size="14.00" fill="#000000">BrowserModule</text>
</g>
<!-- BrowserModule&#45;&gt;AppModule -->
<g id="edge8" class="edge">
<title>BrowserModule&#45;&gt;AppModule</title>
<path fill="none" stroke="#000000" d="M1399,-122.1243C1399,-136.7832 1399,-155 1399,-155 1399,-155 1331.9549,-155 1331.9549,-155"/>
<polygon fill="#000000" stroke="#000000" points="1331.955,-151.5001 1321.9549,-155 1331.9549,-158.5001 1331.955,-151.5001"/>
</g>
<!-- FormsModule -->
<g id="node10" class="node">
<title>FormsModule</title>
<polygon fill="#8dd3c7" stroke="#000000" points="1327.8288,-122 1324.8288,-126 1303.8288,-126 1300.8288,-122 1232.1712,-122 1232.1712,-86 1327.8288,-86 1327.8288,-122"/>
<text text-anchor="middle" x="1280" y="-99.8" font-family="Times,serif" font-size="14.00" fill="#000000">FormsModule</text>
</g>
<!-- FormsModule&#45;&gt;AppModule -->
<g id="edge9" class="edge">
<title>FormsModule&#45;&gt;AppModule</title>
<path fill="none" stroke="#000000" d="M1280,-122.1061C1280,-122.1061 1280,-140.991 1280,-140.991"/>
<polygon fill="#000000" stroke="#000000" points="1276.5001,-140.9909 1280,-150.991 1283.5001,-140.991 1276.5001,-140.9909"/>
</g>
<!-- HttpModule -->
<g id="node11" class="node">
<title>HttpModule</title>
<polygon fill="#8dd3c7" stroke="#000000" points="1214.4387,-122 1211.4387,-126 1190.4387,-126 1187.4387,-122 1129.5613,-122 1129.5613,-86 1214.4387,-86 1214.4387,-122"/>
<text text-anchor="middle" x="1172" y="-99.8" font-family="Times,serif" font-size="14.00" fill="#000000">HttpModule</text>
</g>
<!-- HttpModule&#45;&gt;AppModule -->
<g id="edge10" class="edge">
<title>HttpModule&#45;&gt;AppModule</title>
<path fill="none" stroke="#000000" d="M1172,-122.1243C1172,-136.7832 1172,-155 1172,-155 1172,-155 1228.2444,-155 1228.2444,-155"/>
<polygon fill="#000000" stroke="#000000" points="1228.2444,-158.5001 1238.2444,-155 1228.2443,-151.5001 1228.2444,-158.5001"/>
</g>
<!-- RouterModule.forRoot(args) -->
<g id="node12" class="node">
<title>RouterModule.forRoot(args)</title>
<polygon fill="#8dd3c7" stroke="#000000" points="1111.8419,-122 1108.8419,-126 1087.8419,-126 1084.8419,-122 934.1581,-122 934.1581,-86 1111.8419,-86 1111.8419,-122"/>
<text text-anchor="middle" x="1023" y="-99.8" font-family="Times,serif" font-size="14.00" fill="#000000">RouterModule.forRoot(args)</text>
</g>
<!-- RouterModule.forRoot(args)&#45;&gt;AppModule -->
<g id="edge11" class="edge">
<title>RouterModule.forRoot(args)&#45;&gt;AppModule</title>
<path fill="none" stroke="#000000" d="M1023,-122.0091C1023,-138.0494 1023,-159 1023,-159 1023,-159 1228.1365,-159 1228.1365,-159"/>
<polygon fill="#000000" stroke="#000000" points="1228.1366,-162.5001 1238.1365,-159 1228.1365,-155.5001 1228.1366,-162.5001"/>
</g>
<!-- FlashMessagesModule -->
<g id="node13" class="node">
<title>FlashMessagesModule</title>
<polygon fill="#8dd3c7" stroke="#000000" points="916.3047,-122 913.3047,-126 892.3047,-126 889.3047,-122 771.6953,-122 771.6953,-86 916.3047,-86 916.3047,-122"/>
<text text-anchor="middle" x="844" y="-99.8" font-family="Times,serif" font-size="14.00" fill="#000000">FlashMessagesModule</text>
</g>
<!-- FlashMessagesModule&#45;&gt;AppModule -->
<g id="edge12" class="edge">
<title>FlashMessagesModule&#45;&gt;AppModule</title>
<path fill="none" stroke="#000000" d="M844,-122.0225C844,-139.3734 844,-163 844,-163 844,-163 1228.1945,-163 1228.1945,-163"/>
<polygon fill="#000000" stroke="#000000" points="1228.1945,-166.5001 1238.1945,-163 1228.1945,-159.5001 1228.1945,-166.5001"/>
</g>
<!-- BrowserAnimationsModule -->
<g id="node14" class="node">
<title>BrowserAnimationsModule</title>
<polygon fill="#8dd3c7" stroke="#000000" points="754.3019,-122 751.3019,-126 730.3019,-126 727.3019,-122 581.6981,-122 581.6981,-86 754.3019,-86 754.3019,-122"/>
<text text-anchor="middle" x="668" y="-99.8" font-family="Times,serif" font-size="14.00" fill="#000000">BrowserAnimationsModule</text>
</g>
<!-- BrowserAnimationsModule&#45;&gt;AppModule -->
<g id="edge13" class="edge">
<title>BrowserAnimationsModule&#45;&gt;AppModule</title>
<path fill="none" stroke="#000000" d="M668,-122.2222C668,-140.8285 668,-167 668,-167 668,-167 1227.9348,-167 1227.9348,-167"/>
<polygon fill="#000000" stroke="#000000" points="1227.9348,-170.5001 1237.9348,-167 1227.9347,-163.5001 1227.9348,-170.5001"/>
</g>
<!-- MaterialModule -->
<g id="node15" class="node">
<title>MaterialModule</title>
<polygon fill="#8dd3c7" stroke="#000000" points="563.4706,-122 560.4706,-126 539.4706,-126 536.4706,-122 456.5294,-122 456.5294,-86 563.4706,-86 563.4706,-122"/>
<text text-anchor="middle" x="510" y="-99.8" font-family="Times,serif" font-size="14.00" fill="#000000">MaterialModule</text>
</g>
<!-- MaterialModule&#45;&gt;AppModule -->
<g id="edge14" class="edge">
<title>MaterialModule&#45;&gt;AppModule</title>
<path fill="none" stroke="#000000" d="M510,-122.308C510,-142.1455 510,-171 510,-171 510,-171 1228.3284,-171 1228.3284,-171"/>
<polygon fill="#000000" stroke="#000000" points="1228.3285,-174.5001 1238.3284,-171 1228.3284,-167.5001 1228.3285,-174.5001"/>
</g>
<!-- ValidateService -->
<g id="node17" class="node">
<title>ValidateService</title>
<ellipse fill="#fdb462" stroke="#000000" cx="360" cy="-104" rx="72.9063" ry="18"/>
<text text-anchor="middle" x="360" y="-99.8" font-family="Times,serif" font-size="14.00" fill="#000000">ValidateService</text>
</g>
<!-- ValidateService&#45;&gt;AppModule -->
<g id="edge16" class="edge">
<title>ValidateService&#45;&gt;AppModule</title>
<path fill="none" stroke="#000000" d="M360,-122.2843C360,-143.3211 360,-175 360,-175 360,-175 1228.0789,-175 1228.0789,-175"/>
<polygon fill="#000000" stroke="#000000" points="1228.0789,-178.5001 1238.0789,-175 1228.0788,-171.5001 1228.0789,-178.5001"/>
</g>
<!-- AuthService -->
<g id="node18" class="node">
<title>AuthService</title>
<ellipse fill="#fdb462" stroke="#000000" cx="210" cy="-104" rx="59.1083" ry="18"/>
<text text-anchor="middle" x="210" y="-99.8" font-family="Times,serif" font-size="14.00" fill="#000000">AuthService</text>
</g>
<!-- AuthService&#45;&gt;AppModule -->
<g id="edge17" class="edge">
<title>AuthService&#45;&gt;AppModule</title>
<path fill="none" stroke="#000000" d="M210,-122.1554C210,-144.3519 210,-179 210,-179 210,-179 1228.0547,-179 1228.0547,-179"/>
<polygon fill="#000000" stroke="#000000" points="1228.0548,-182.5001 1238.0547,-179 1228.0547,-175.5001 1228.0548,-182.5001"/>
</g>
<!-- AuthGuard -->
<g id="node19" class="node">
<title>AuthGuard</title>
<ellipse fill="#fdb462" stroke="#000000" cx="78" cy="-104" rx="54.4566" ry="18"/>
<text text-anchor="middle" x="78" y="-99.8" font-family="Times,serif" font-size="14.00" fill="#000000">AuthGuard</text>
</g>
<!-- AuthGuard&#45;&gt;AppModule -->
<g id="edge18" class="edge">
<title>AuthGuard&#45;&gt;AppModule</title>
<path fill="none" stroke="#000000" d="M78,-122.3228C78,-145.6602 78,-183 78,-183 78,-183 1228.2754,-183 1228.2754,-183"/>
<polygon fill="#000000" stroke="#000000" points="1228.2754,-186.5001 1238.2754,-183 1228.2753,-179.5001 1228.2754,-186.5001"/>
</g>
</g>
</svg>
