<?xml version="1.0" encoding="UTF-8" standalone="no"?>
<!DOCTYPE svg PUBLIC "-//W3C//DTD SVG 1.1//EN"
 "http://www.w3.org/Graphics/SVG/1.1/DTD/svg11.dtd">
<!-- Generated by graphviz version 2.40.1 (20161225.0304)
 -->
<!-- Title: dependencies Pages: 1 -->
<svg width="1051pt" height="284pt"
 viewBox="0.00 0.00 1051.00 284.00" xmlns="http://www.w3.org/2000/svg" xmlns:xlink="http://www.w3.org/1999/xlink">
<g id="graph0" class="graph" transform="scale(1 1) rotate(0) translate(4 280)">
<title>dependencies</title>
<polygon fill="#ffffff" stroke="transparent" points="-4,4 -4,-280 1047,-280 1047,4 -4,4"/>
<text text-anchor="start" x="500.5091" y="-42.4" font-family="sans-serif" font-weight="bold" font-size="14.00" fill="#000000">Legend</text>
<polygon fill="#ffffb3" stroke="transparent" points="287.5,-10 287.5,-30 307.5,-30 307.5,-10 287.5,-10"/>
<text text-anchor="start" x="311.129" y="-15.4" font-family="sans-serif" font-size="14.00" fill="#000000"> &#160;Declarations</text>
<polygon fill="#8dd3c7" stroke="transparent" points="400.5,-10 400.5,-30 420.5,-30 420.5,-10 400.5,-10"/>
<text text-anchor="start" x="424.2251" y="-15.4" font-family="sans-serif" font-size="14.00" fill="#000000"> &#160;Module</text>
<polygon fill="#80b1d3" stroke="transparent" points="486.5,-10 486.5,-30 506.5,-30 506.5,-10 486.5,-10"/>
<text text-anchor="start" x="510.2812" y="-15.4" font-family="sans-serif" font-size="14.00" fill="#000000"> &#160;Bootstrap</text>
<polygon fill="#fdb462" stroke="transparent" points="583.5,-10 583.5,-30 603.5,-30 603.5,-10 583.5,-10"/>
<text text-anchor="start" x="607.1732" y="-15.4" font-family="sans-serif" font-size="14.00" fill="#000000"> &#160;Providers</text>
<polygon fill="#fb8072" stroke="transparent" points="679.5,-10 679.5,-30 699.5,-30 699.5,-10 679.5,-10"/>
<text text-anchor="start" x="703.2258" y="-15.4" font-family="sans-serif" font-size="14.00" fill="#000000"> &#160;Exports</text>
<g id="clust1" class="cluster">
<title>cluster_AppModule</title>
<polygon fill="none" stroke="#000000" stroke-dasharray="1,5" points="8,-70 8,-268 1035,-268 1035,-70 8,-70"/>
</g>
<g id="clust3" class="cluster">
<title>cluster_AppModule_imports</title>
<polygon fill="none" stroke="#000000" points="16,-78 16,-130 1027,-130 1027,-78 16,-78"/>
</g>
<g id="clust5" class="cluster">
<title>cluster_AppModule_bootstrap</title>
<polygon fill="none" stroke="#000000" points="528,-208 528,-260 652,-260 652,-208 528,-208"/>
</g>
<!-- BrowserModule -->
<g id="node1" class="node">
<title>BrowserModule</title>
<polygon fill="#8dd3c7" stroke="#000000" points="1019.4734,-122 1016.4734,-126 995.4734,-126 992.4734,-122 912.5266,-122 912.5266,-86 1019.4734,-86 1019.4734,-122"/>
<text text-anchor="middle" x="966" y="-99.8" font-family="Times,serif" font-size="14.00" fill="#000000">BrowserModule</text>
</g>
<!-- AppModule -->
<g id="node8" class="node">
<title>AppModule</title>
<polygon fill="#8dd3c7" stroke="#000000" points="631.6571,-187 628.6571,-191 607.6571,-191 604.6571,-187 548.3429,-187 548.3429,-151 631.6571,-151 631.6571,-187"/>
<text text-anchor="middle" x="590" y="-164.8" font-family="Times,serif" font-size="14.00" fill="#000000">AppModule</text>
</g>
<!-- BrowserModule&#45;&gt;AppModule -->
<g id="edge1" class="edge">
<title>BrowserModule&#45;&gt;AppModule</title>
<path fill="none" stroke="#000000" d="M966,-122.2921C966,-144.2057 966,-178 966,-178 966,-178 641.6752,-178 641.6752,-178"/>
<polygon fill="#000000" stroke="#000000" points="641.6752,-174.5001 631.6752,-178 641.6752,-181.5001 641.6752,-174.5001"/>
</g>
<!-- FormsModule -->
<g id="node2" class="node">
<title>FormsModule</title>
<polygon fill="#8dd3c7" stroke="#000000" points="894.8288,-122 891.8288,-126 870.8288,-126 867.8288,-122 799.1712,-122 799.1712,-86 894.8288,-86 894.8288,-122"/>
<text text-anchor="middle" x="847" y="-99.8" font-family="Times,serif" font-size="14.00" fill="#000000">FormsModule</text>
</g>
<!-- FormsModule&#45;&gt;AppModule -->
<g id="edge2" class="edge">
<title>FormsModule&#45;&gt;AppModule</title>
<path fill="none" stroke="#000000" d="M847,-122.1061C847,-141.3391 847,-169 847,-169 847,-169 641.8635,-169 641.8635,-169"/>
<polygon fill="#000000" stroke="#000000" points="641.8635,-165.5001 631.8635,-169 641.8634,-172.5001 641.8635,-165.5001"/>
</g>
<!-- HttpModule -->
<g id="node3" class="node">
<title>HttpModule</title>
<polygon fill="#8dd3c7" stroke="#000000" points="781.4387,-122 778.4387,-126 757.4387,-126 754.4387,-122 696.5613,-122 696.5613,-86 781.4387,-86 781.4387,-122"/>
<text text-anchor="middle" x="739" y="-99.8" font-family="Times,serif" font-size="14.00" fill="#000000">HttpModule</text>
</g>
<!-- HttpModule&#45;&gt;AppModule -->
<g id="edge3" class="edge">
<title>HttpModule&#45;&gt;AppModule</title>
<path fill="none" stroke="#000000" d="M739,-122.027C739,-138.3976 739,-160 739,-160 739,-160 641.9013,-160 641.9013,-160"/>
<polygon fill="#000000" stroke="#000000" points="641.9014,-156.5001 631.9013,-160 641.9013,-163.5001 641.9014,-156.5001"/>
</g>
<!-- RouterModule.forRoot(args) -->
<g id="node4" class="node">
<title>RouterModule.forRoot(args)</title>
<polygon fill="#8dd3c7" stroke="#000000" points="678.8419,-122 675.8419,-126 654.8419,-126 651.8419,-122 501.1581,-122 501.1581,-86 678.8419,-86 678.8419,-122"/>
<text text-anchor="middle" x="590" y="-99.8" font-family="Times,serif" font-size="14.00" fill="#000000">RouterModule.forRoot(args)</text>
</g>
<!-- RouterModule.forRoot(args)&#45;&gt;AppModule -->
<g id="edge4" class="edge">
<title>RouterModule.forRoot(args)&#45;&gt;AppModule</title>
<path fill="none" stroke="#000000" d="M590,-122.1061C590,-122.1061 590,-140.991 590,-140.991"/>
<polygon fill="#000000" stroke="#000000" points="586.5001,-140.9909 590,-150.991 593.5001,-140.991 586.5001,-140.9909"/>
</g>
<!-- FlashMessagesModule -->
<g id="node5" class="node">
<title>FlashMessagesModule</title>
<polygon fill="#8dd3c7" stroke="#000000" points="483.3047,-122 480.3047,-126 459.3047,-126 456.3047,-122 338.6953,-122 338.6953,-86 483.3047,-86 483.3047,-122"/>
<text text-anchor="middle" x="411" y="-99.8" font-family="Times,serif" font-size="14.00" fill="#000000">FlashMessagesModule</text>
</g>
<!-- FlashMessagesModule&#45;&gt;AppModule -->
<g id="edge5" class="edge">
<title>FlashMessagesModule&#45;&gt;AppModule</title>
<path fill="none" stroke="#000000" d="M411,-122.027C411,-138.3976 411,-160 411,-160 411,-160 538.0325,-160 538.0325,-160"/>
<polygon fill="#000000" stroke="#000000" points="538.0325,-163.5001 548.0325,-160 538.0324,-156.5001 538.0325,-163.5001"/>
</g>
<!-- BrowserAnimationsModule -->
<g id="node6" class="node">
<title>BrowserAnimationsModule</title>
<polygon fill="#8dd3c7" stroke="#000000" points="321.3019,-122 318.3019,-126 297.3019,-126 294.3019,-122 148.6981,-122 148.6981,-86 321.3019,-86 321.3019,-122"/>
<text text-anchor="middle" x="235" y="-99.8" font-family="Times,serif" font-size="14.00" fill="#000000">BrowserAnimationsModule</text>
</g>
<!-- BrowserAnimationsModule&#45;&gt;AppModule -->
<g id="edge6" class="edge">
<title>BrowserAnimationsModule&#45;&gt;AppModule</title>
<path fill="none" stroke="#000000" d="M235,-122.1061C235,-141.3391 235,-169 235,-169 235,-169 538.2331,-169 538.2331,-169"/>
<polygon fill="#000000" stroke="#000000" points="538.2331,-172.5001 548.2331,-169 538.233,-165.5001 538.2331,-172.5001"/>
</g>
<!-- MaterialModule -->
<g id="node7" class="node">
<title>MaterialModule</title>
<polygon fill="#8dd3c7" stroke="#000000" points="130.4706,-122 127.4706,-126 106.4706,-126 103.4706,-122 23.5294,-122 23.5294,-86 130.4706,-86 130.4706,-122"/>
<text text-anchor="middle" x="77" y="-99.8" font-family="Times,serif" font-size="14.00" fill="#000000">MaterialModule</text>
</g>
<!-- MaterialModule&#45;&gt;AppModule -->
<g id="edge7" class="edge">
<title>MaterialModule&#45;&gt;AppModule</title>
<path fill="none" stroke="#000000" d="M77,-122.2921C77,-144.2057 77,-178 77,-178 77,-178 538.0191,-178 538.0191,-178"/>
<polygon fill="#000000" stroke="#000000" points="538.0191,-181.5001 548.0191,-178 538.019,-174.5001 538.0191,-181.5001"/>
</g>
<!-- AppComponent  -->
<g id="node9" class="node">
<title>AppComponent </title>
<polygon fill="#80b1d3" stroke="#000000" points="644.439,-252 535.561,-252 535.561,-216 644.439,-216 644.439,-252"/>
<text text-anchor="middle" x="590" y="-229.8" font-family="Times,serif" font-size="14.00" fill="#000000">AppComponent </text>
</g>
<!-- AppModule&#45;&gt;AppComponent  -->
<g id="edge8" class="edge">
<title>AppModule&#45;&gt;AppComponent </title>
<path fill="none" stroke="#000000" stroke-dasharray="1,5" d="M590,-187.1061C590,-187.1061 590,-205.991 590,-205.991"/>
<polygon fill="#000000" stroke="#000000" points="586.5001,-205.9909 590,-215.991 593.5001,-205.991 586.5001,-205.9909"/>
</g>
</g>
</svg>
